<?xml version="1.0" encoding="UTF-8"?>
<svg id="_Шар_1" data-name="Шар 1" xmlns="http://www.w3.org/2000/svg" xmlns:xlink="http://www.w3.org/1999/xlink" viewBox="0 0 1842.95 321.51">
  <defs>
    <style>
      .cls-1 {
        fill: url(#linear-gradient);
      }

      .cls-2 {
        fill: url(#_Градієнт_без_назви_11);
      }

      .cls-3 {
        fill: url(#linear-gradient-3);
      }

      .cls-4 {
        fill: url(#linear-gradient-4);
      }

      .cls-5 {
        fill: url(#linear-gradient-2);
      }

      .cls-6 {
        fill: url(#linear-gradient-6);
      }

      .cls-7 {
        fill: url(#linear-gradient-5);
      }
    </style>
    <linearGradient id="linear-gradient" x1="12.6" y1="302.45" x2="296.71" y2="27.12" gradientUnits="userSpaceOnUse">
      <stop offset="0" stop-color="#582fbd"/>
      <stop offset=".16" stop-color="#8161f4"/>
      <stop offset=".56" stop-color="#0085cb"/>
      <stop offset=".62" stop-color="#0993d0"/>
      <stop offset=".78" stop-color="#20bade"/>
      <stop offset=".92" stop-color="#2fd2e6"/>
      <stop offset="1" stop-color="#35dbea"/>
    </linearGradient>
    <linearGradient id="linear-gradient-2" x1="14.48" y1="304.4" x2="298.59" y2="29.06" xlink:href="#linear-gradient"/>
    <linearGradient id="linear-gradient-3" x1="-46.8" y1="235.33" x2="229.76" y2="-32.69" xlink:href="#linear-gradient"/>
    <linearGradient id="linear-gradient-4" x1="15.5" y1="305.45" x2="299.61" y2="30.11" xlink:href="#linear-gradient"/>
    <linearGradient id="linear-gradient-5" x1="133.87" y1="427.58" x2="417.97" y2="152.24" xlink:href="#linear-gradient"/>
    <linearGradient id="linear-gradient-6" x1="13.23" y1="303.1" x2="297.34" y2="27.77" xlink:href="#linear-gradient"/>
    <linearGradient id="_Градієнт_без_назви_11" data-name="Градієнт без назви 11" x1="1195.51" y1="107.78" x2="1222.54" y2="81.02" gradientUnits="userSpaceOnUse">
      <stop offset="0" stop-color="#582fbe"/>
      <stop offset="1" stop-color="#0086cc"/>
    </linearGradient>
  </defs>
  <g>
    <path class="cls-1" d="M308.61,199.56h-51.81c-7.12,0-12.9-5.77-12.9-12.9v-22.56c0-22.94-9.11-44.94-25.34-61.17h0c-16.22-16.22-38.22-25.34-61.17-25.34h-22.56c-7.12,0-12.9-5.77-12.9-12.9V12.9C121.96,5.77,127.73,0,134.85,0h51.81c7.12,0,12.9,5.77,12.9,12.9v22.56c0,22.94,9.11,44.94,25.34,61.17h0c16.22,16.22,38.22,25.34,61.17,25.34h22.56c7.12,0,12.9,5.77,12.9,12.9v51.81c0,7.12-5.77,12.9-12.9,12.9Z"/>
    <path class="cls-5" d="M186.66,321.51h-51.81c-7.12,0-12.9-5.77-12.9-12.9v-22.56c0-22.94-9.11-44.94-25.34-61.17h0c-16.22-16.22-38.22-25.34-61.17-25.34H12.9c-7.12,0-12.9-5.77-12.9-12.9v-51.81c0-7.12,5.77-12.9,12.9-12.9h51.81c7.12,0,12.9,5.77,12.9,12.9v22.56c0,22.94,9.11,44.94,25.34,61.17h0c16.22,16.22,38.22,25.34,61.17,25.34h22.56c7.12,0,12.9,5.77,12.9,12.9v51.81c0,7.12-5.77,12.9-12.9,12.9Z"/>
    <path class="cls-3" d="M164.1,199.56h-6.69c-19.58,0-35.45-15.87-35.45-35.45h0c0-22.94-9.11-44.94-25.34-61.17h0c-16.22-16.22-38.22-25.34-61.17-25.34H12.9C5.77,77.6,0,71.83,0,64.7V12.9C0,5.77,5.77,0,12.9,0h51.81c7.12,0,12.9,5.77,12.9,12.9v22.56c0,22.94,9.11,44.94,25.34,61.17h0c16.22,16.22,38.22,25.34,61.17,25.34h0c19.58,0,35.45,15.87,35.45,35.45v6.69c0,19.58-15.87,35.45-35.45,35.45Z"/>
    <rect class="cls-4" x="12.9" y="256.97" width="51.81" height="51.81" rx="8.61" ry="8.61"/>
    <rect class="cls-7" x="257.28" y="256.97" width="51.81" height="51.81" rx="8.61" ry="8.61"/>
    <rect class="cls-6" x="257.28" y="15.58" width="51.81" height="51.81" rx="8.61" ry="8.61"/>
  </g>
  <g>
    <path d="M585.1,239.07v-107.9l-52.27,107.9h-29.97l-52.03-107.9v107.9h-29.73V74.11h35.49l61.62,131.88,61.86-131.88h34.77V239.07h-29.73Z"/>
    <path d="M708.59,239.07v-60.66l-77.69-104.3h37.41l57.55,77.21,57.07-77.21h37.65l-79.61,104.3v60.66h-32.37Z"/>
    <path d="M1000.17,191.36c0,35.01-14.39,47.72-53.71,47.72h-116.53c.48-10.79,1.44-21.58,2.16-32.37h112.21c17.5,0,22.54-4.08,22.54-18.22s-4.8-18.22-21.82-18.22h-66.9c-39.56,0-52.27-14.15-52.27-44.36v-5.51c0-32.85,13.19-46.27,53.23-46.27h115.57c-1.2,11.03-2.64,21.82-4.08,32.85h-111.5c-15.82,0-20.38,5.03-20.38,17.98s4.56,18.22,20.38,18.22h65.94c41,0,55.15,13.43,55.15,42.44v5.75Z"/>
    <path d="M1075.46,239.07V106.72h-60.18v-32.61h152.74v32.61h-60.18V239.07h-32.37Z"/>
    <rect class="cls-2" x="1196.02" y="74.11" width="32.37" height="34.29" rx="2.68" ry="2.68"/>
    <rect x="1196.02" y="119.67" width="32.13" height="119.41"/>
    <path d="M1397.19,276.48l-31.89-37.41h-56.11c-38.12,0-51.55-14.62-51.55-53.47v-58.03c0-38.84,13.43-53.47,51.55-53.47h87.04c38.12,0,51.55,14.62,51.55,53.47v58.03c0,37.16-11.27,51.31-46.04,52.75l21.1,23.74-25.65,14.39Zm18.22-148.66c0-16.3-5.03-21.1-19.42-21.1h-86.8c-14.39,0-19.42,4.79-19.42,21.1v58.03c0,16.3,4.56,20.86,19.42,20.86h86.8c14.87,0,19.42-4.56,19.42-20.86v-58.03Z"/>
    <path d="M1525.72,239.07c-36.69,0-49.63-14.87-49.63-52.27V74.11h32.13v112.69c0,13.91,4.8,19.9,17.5,19.9h80.56c12.71,0,17.5-5.99,17.5-19.9V74.11h32.37v112.69c0,37.41-13.19,52.27-49.87,52.27h-80.56Z"/>
    <path d="M1684.46,239.07V74.11h158.49v32.61h-126.12v36.44h122.53v26.62h-122.53v36.93h126.12v32.37h-158.49Z"/>
  </g>
</svg>